<svg width="813" height="149" viewBox="0 0 813 149" fill="none" xmlns="http://www.w3.org/2000/svg">
<path d="M0.443892 146.18L24.5916 0.725824H46.5376L35.103 70.1861H36.8786L109.322 0.725824H136.95L67.5604 66.2088L113.015 146.18H86.5945L50.5149 81.1946L30.0604 101.01L22.3899 146.18H0.443892ZM145.543 146.18H122.248L198.739 0.725824H224.094L252.29 146.18H228.995L207.759 27.1463H206.623L145.543 146.18ZM158.896 89.2201H234.464L231.339 107.686H155.771L158.896 89.2201ZM273.295 146.18L297.443 0.725824H349.29C360.559 0.725824 369.579 2.66711 376.349 6.54969C383.168 10.3849 387.855 15.7353 390.412 22.6008C393.016 29.419 393.584 37.3262 392.116 46.3224C390.601 55.2239 387.405 63.0364 382.528 69.7599C377.699 76.4834 371.236 81.7391 363.139 85.527C355.09 89.2675 345.431 91.1378 334.162 91.1378H294.886L298.153 72.2457H335.44C342.59 72.2457 348.556 71.2277 353.338 69.1917C358.12 67.1557 361.861 64.1965 364.56 60.3139C367.306 56.4313 369.105 51.7675 369.957 46.3224C370.857 40.7826 370.597 36.0241 369.176 32.0468C367.756 28.0222 364.986 24.9446 360.866 22.8139C356.747 20.6359 351.089 19.5468 343.892 19.5468H316.335L295.241 146.18H273.295ZM355.966 80.5554L381.037 146.18H356.037L331.605 80.5554H355.966ZM415.075 146.18H391.779L468.271 0.725824H493.626L521.822 146.18H498.526L477.29 27.1463H476.154L415.075 146.18ZM428.427 89.2201H503.995L500.87 107.686H425.302L428.427 89.2201Z" fill="#FC7D08"/>
<path d="M558.949 148.453C553.409 148.453 548.887 146.535 545.384 142.7C541.927 138.818 540.483 134.107 541.051 128.567C541.619 123.169 544.058 118.553 548.366 114.717C552.723 110.882 557.67 108.964 563.21 108.964C568.466 108.964 572.846 110.882 576.349 114.717C579.901 118.553 581.392 123.169 580.824 128.567C580.445 132.26 579.143 135.622 576.918 138.652C574.74 141.635 572.041 144.026 568.821 145.825C565.649 147.577 562.358 148.453 558.949 148.453ZM651.562 148.169C639.725 148.169 629.972 145.825 622.301 141.138C614.631 136.403 609.257 129.821 606.179 121.393C603.101 112.918 602.509 103.093 604.403 91.919C606.203 80.7448 610.038 70.9436 615.909 62.5156C621.828 54.0402 629.403 47.4588 638.636 42.7713C647.917 38.0364 658.475 35.669 670.312 35.669C681.013 35.669 689.938 37.6103 697.088 41.4929C704.285 45.3281 709.422 50.7732 712.5 57.8281C715.625 64.8357 716.43 73.0743 714.915 82.544H678.551C678.977 76.8622 678.054 72.5061 675.781 69.4758C673.556 66.4455 670.312 64.9304 666.051 64.9304C662.547 64.9304 659.328 65.9247 656.392 67.9133C653.504 69.8546 651.018 72.8139 648.935 76.7912C646.899 80.7211 645.407 85.669 644.46 91.6349C643.513 97.6008 643.395 102.572 644.105 106.55C644.863 110.48 646.33 113.439 648.509 115.428C650.734 117.369 653.551 118.339 656.96 118.339C659.896 118.339 662.595 117.677 665.057 116.351C667.566 114.978 669.721 112.989 671.52 110.385C673.366 107.733 674.763 104.514 675.71 100.726H712.074C710.275 110.385 706.652 118.766 701.207 125.868C695.762 132.97 688.826 138.463 680.398 142.345C671.97 146.228 662.358 148.169 651.562 148.169ZM720.579 146.18L738.761 37.0895H776.829L773.42 57.8281H774.556C777.823 50.1576 781.919 44.5468 786.843 40.9957C791.767 37.4446 797.141 35.669 802.965 35.669C804.67 35.669 806.303 35.8111 807.866 36.0951C809.476 36.3319 811.062 36.6633 812.624 37.0895L806.942 70.6122C805.096 69.902 802.799 69.4048 800.053 69.1207C797.307 68.7893 794.869 68.6236 792.738 68.6236C788.95 68.6236 785.399 69.4995 782.085 71.2514C778.817 72.9559 776.024 75.3707 773.704 78.4957C771.431 81.5734 769.916 85.1955 769.158 89.3622L759.783 146.18H720.579Z" fill="black" fill-opacity="0.2"/>
<path d="M0.443893 146.18L-4.4886 145.362L-5.45462 151.18H0.443893V146.18ZM24.5916 0.725822V-4.27418H20.3533L19.6591 -0.0930443L24.5916 0.725822ZM46.5376 0.725822L51.4712 1.538L52.428 -4.27418H46.5376V0.725822ZM35.103 70.1861L30.1694 69.3739L29.2126 75.1861H35.103V70.1861ZM36.8786 70.1861V75.1861H38.8883L40.339 73.7951L36.8786 70.1861ZM109.322 0.725822V-4.27418H107.312L105.861 -2.88323L109.322 0.725822ZM136.95 0.725822L140.381 4.36223L149.533 -4.27418H136.95V0.725822ZM67.5604 66.2088L64.1287 62.5724L61.2737 65.2667L63.2135 68.6795L67.5604 66.2088ZM113.015 146.18V151.18H121.608L117.362 143.71L113.015 146.18ZM86.5945 146.18L82.223 148.607L83.6515 151.18H86.5945V146.18ZM50.5149 81.1946L54.8864 78.7676L51.7205 73.0652L47.0359 77.6034L50.5149 81.1946ZM30.0604 101.01L26.5814 97.4187L25.4051 98.5582L25.1309 100.173L30.0604 101.01ZM22.3899 146.18V151.18H26.6124L27.3194 147.017L22.3899 146.18ZM5.37638 146.999L29.5241 1.54469L19.6591 -0.0930443L-4.4886 145.362L5.37638 146.999ZM24.5916 5.72582H46.5376V-4.27418H24.5916V5.72582ZM41.604 -0.0863533L30.1694 69.3739L40.0366 70.9982L51.4712 1.538L41.604 -0.0863533ZM35.103 75.1861H36.8786V65.1861H35.103V75.1861ZM40.339 73.7951L112.782 4.33488L105.861 -2.88323L33.4181 66.577L40.339 73.7951ZM109.322 5.72582H136.95V-4.27418H109.322V5.72582ZM133.518 -2.91058L64.1287 62.5724L70.9921 69.8452L140.381 4.36223L133.518 -2.91058ZM63.2135 68.6795L108.668 148.651L117.362 143.71L71.9073 63.7381L63.2135 68.6795ZM113.015 141.18H86.5945V151.18H113.015V141.18ZM90.9659 143.753L54.8864 78.7676L46.1435 83.6216L82.223 148.607L90.9659 143.753ZM47.0359 77.6034L26.5814 97.4187L33.5393 104.601L53.9939 84.7858L47.0359 77.6034ZM25.1309 100.173L17.4605 145.343L27.3194 147.017L34.9898 101.847L25.1309 100.173ZM22.3899 141.18H0.443893V151.18H22.3899V141.18ZM145.543 146.18V151.18H148.598L149.992 148.463L145.543 146.18ZM122.248 146.18L117.822 143.853L113.969 151.18H122.248V146.18ZM198.739 0.725822V-4.27418H195.72L194.314 -1.60139L198.739 0.725822ZM224.094 0.725822L229.003 -0.2257L228.218 -4.27418H224.094V0.725822ZM252.29 146.18V151.18H258.353L257.199 145.229L252.29 146.18ZM228.995 146.18L224.073 147.059L224.808 151.18H228.995V146.18ZM207.759 27.1463L212.682 26.2681L211.946 22.1463H207.759V27.1463ZM206.623 27.1463V22.1463H203.569L202.174 24.8636L206.623 27.1463ZM158.896 89.2201V84.2201H154.671L153.966 88.3858L158.896 89.2201ZM234.464 89.2201L239.394 90.0544L240.381 84.2201H234.464V89.2201ZM231.339 107.686V112.686H235.564L236.269 108.52L231.339 107.686ZM155.771 107.686L150.841 106.852L149.853 112.686H155.771V107.686ZM145.543 141.18H122.248V151.18H145.543V141.18ZM126.673 148.508L203.165 3.05304L194.314 -1.60139L117.822 143.853L126.673 148.508ZM198.739 5.72582H224.094V-4.27418H198.739V5.72582ZM219.186 1.67735L247.382 147.132L257.199 145.229L229.003 -0.2257L219.186 1.67735ZM252.29 141.18H228.995V151.18H252.29V141.18ZM233.917 145.302L212.682 26.2681L202.837 28.0244L224.073 147.059L233.917 145.302ZM207.759 22.1463H206.623V32.1463H207.759V22.1463ZM202.174 24.8636L141.095 143.898L149.992 148.463L211.071 29.4289L202.174 24.8636ZM158.896 94.2201H234.464V84.2201H158.896V94.2201ZM229.534 88.3858L226.409 106.852L236.269 108.52L239.394 90.0544L229.534 88.3858ZM231.339 102.686H155.771V112.686H231.339V102.686ZM160.701 108.52L163.826 90.0544L153.966 88.3858L150.841 106.852L160.701 108.52ZM273.295 146.18L268.363 145.362L267.397 151.18H273.295V146.18ZM297.443 0.725822V-4.27418H293.205L292.511 -0.0930443L297.443 0.725822ZM376.349 6.54969L373.862 10.8872L373.88 10.8974L373.898 10.9076L376.349 6.54969ZM390.412 22.6008L385.726 24.3458L385.734 24.3654L385.741 24.3848L390.412 22.6008ZM392.116 46.3224L397.046 47.1614L397.048 47.1445L397.051 47.1276L392.116 46.3224ZM382.528 69.7599L378.481 66.8242L378.474 66.8335L378.467 66.8429L382.528 69.7599ZM363.139 85.527L365.246 90.0613L365.258 90.0558L363.139 85.527ZM294.886 91.1378L289.96 90.2858L288.947 96.1378H294.886V91.1378ZM298.153 72.2457V67.2457H293.944L293.227 71.3937L298.153 72.2457ZM353.338 69.1917L355.297 73.7922L353.338 69.1917ZM364.56 60.3139L360.478 57.4266L360.466 57.4433L360.454 57.46L364.56 60.3139ZM369.957 46.3224L365.022 45.521L365.02 45.5351L365.018 45.5492L369.957 46.3224ZM369.176 32.0469L364.461 33.7109L364.464 33.7197L364.467 33.7285L369.176 32.0469ZM360.866 22.8139L358.529 27.2341L358.549 27.2446L358.569 27.255L360.866 22.8139ZM316.335 19.5469V14.5468H312.099L311.403 18.7253L316.335 19.5469ZM295.241 146.18V151.18H299.478L300.174 147.002L295.241 146.18ZM355.966 80.5554L360.637 78.771L359.408 75.5554H355.966V80.5554ZM381.037 146.18V151.18H388.3L385.708 144.396L381.037 146.18ZM356.037 146.18L351.351 147.925L352.563 151.18H356.037V146.18ZM331.605 80.5554V75.5554H324.408L326.919 82.2999L331.605 80.5554ZM278.228 146.999L302.376 1.54469L292.511 -0.0930443L268.363 145.362L278.228 146.999ZM297.443 5.72582H349.29V-4.27418H297.443V5.72582ZM349.29 5.72582C360.05 5.72582 368.111 7.58948 373.862 10.8872L378.837 2.21221C371.046 -2.25525 361.068 -4.27418 349.29 -4.27418V5.72582ZM373.898 10.9076C379.762 14.2058 383.611 18.6665 385.726 24.3458L395.098 20.8558C392.099 12.8041 386.574 6.56406 378.801 2.19181L373.898 10.9076ZM385.741 24.3848C387.961 30.1967 388.542 37.1778 387.182 45.5173L397.051 47.1276C398.626 37.4746 398.071 28.6413 395.083 20.8168L385.741 24.3848ZM387.187 45.4834C385.79 53.6947 382.868 60.7755 378.481 66.8242L386.576 72.6957C391.942 65.2974 395.413 56.7531 397.046 47.1614L387.187 45.4834ZM378.467 66.8429C374.176 72.8169 368.406 77.5428 361.02 80.9981L365.258 90.0558C374.065 85.9354 381.221 80.1499 386.589 72.6769L378.467 66.8429ZM361.032 80.9926C353.796 84.3554 344.893 86.1378 334.162 86.1378V96.1378C345.969 96.1378 356.384 94.1796 365.246 90.0613L361.032 80.9926ZM334.162 86.1378H294.886V96.1378H334.162V86.1378ZM299.813 91.9898L303.08 73.0977L293.227 71.3937L289.96 90.2858L299.813 91.9898ZM298.153 77.2457H335.44V67.2457H298.153V77.2457ZM335.44 77.2457C343.026 77.2457 349.709 76.1709 355.297 73.7922L351.379 64.5913C347.402 66.2845 342.154 67.2457 335.44 67.2457V77.2457ZM355.297 73.7922C360.856 71.4255 365.377 67.8986 368.665 63.1677L360.454 57.46C358.345 60.4943 355.385 62.886 351.379 64.5913L355.297 73.7922ZM368.642 63.2012C371.899 58.5966 373.945 53.1811 374.897 47.0956L365.018 45.5492C364.266 50.3539 362.713 54.266 360.478 57.4266L368.642 63.2012ZM374.893 47.1239C375.885 41.0149 375.668 35.3567 373.885 30.3652L364.467 33.7285C365.526 36.6916 365.829 40.5504 365.022 45.521L374.893 47.1239ZM373.891 30.3828C372.009 25.0497 368.306 21.0326 363.164 18.3728L358.569 27.255C361.666 28.8566 363.503 30.9947 364.461 33.7109L373.891 30.3828ZM363.204 18.3937C358.077 15.6829 351.501 14.5468 343.892 14.5468V24.5469C350.677 24.5469 355.418 25.5888 358.529 27.2341L363.204 18.3937ZM343.892 14.5468H316.335V24.5469H343.892V14.5468ZM311.403 18.7253L290.309 145.359L300.174 147.002L321.267 20.3684L311.403 18.7253ZM295.241 141.18H273.295V151.18H295.241V141.18ZM351.295 82.3398L376.366 147.965L385.708 144.396L360.637 78.771L351.295 82.3398ZM381.037 141.18H356.037V151.18H381.037V141.18ZM360.723 144.436L336.291 78.8109L326.919 82.2999L351.351 147.925L360.723 144.436ZM331.605 85.5554H355.966V75.5554H331.605V85.5554ZM415.075 146.18V151.18H418.129L419.523 148.463L415.075 146.18ZM391.779 146.18L387.354 143.853L383.5 151.18H391.779V146.18ZM468.271 0.725822V-4.27418H465.251L463.845 -1.60139L468.271 0.725822ZM493.626 0.725822L498.534 -0.2257L497.75 -4.27418H493.626V0.725822ZM521.822 146.18V151.18H527.884L526.73 145.229L521.822 146.18ZM498.526 146.18L493.604 147.059L494.339 151.18H498.526V146.18ZM477.29 27.1463L482.213 26.2681L481.477 22.1463H477.29V27.1463ZM476.154 27.1463V22.1463H473.1L471.706 24.8636L476.154 27.1463ZM428.427 89.2201V84.2201H424.202L423.497 88.3858L428.427 89.2201ZM503.995 89.2201L508.925 90.0544L509.912 84.2201H503.995V89.2201ZM500.87 107.686V112.686H505.095L505.8 108.52L500.87 107.686ZM425.302 107.686L420.372 106.852L419.385 112.686H425.302V107.686ZM415.075 141.18H391.779V151.18H415.075V141.18ZM396.204 148.508L472.696 3.05304L463.845 -1.60139L387.354 143.853L396.204 148.508ZM468.271 5.72582H493.626V-4.27418H468.271V5.72582ZM488.717 1.67735L516.913 147.132L526.73 145.229L498.534 -0.2257L488.717 1.67735ZM521.822 141.18H498.526V151.18H521.822V141.18ZM503.449 145.302L482.213 26.2681L472.368 28.0244L493.604 147.059L503.449 145.302ZM477.29 22.1463H476.154V32.1463H477.29V22.1463ZM471.706 24.8636L410.626 143.898L419.523 148.463L480.603 29.4289L471.706 24.8636ZM428.427 94.2201H503.995V84.2201H428.427V94.2201ZM499.065 88.3858L495.94 106.852L505.8 108.52L508.925 90.0544L499.065 88.3858ZM500.87 102.686H425.302V112.686H500.87V102.686ZM430.232 108.52L433.357 90.0544L423.497 88.3858L420.372 106.852L430.232 108.52ZM545.384 142.7L541.649 146.025L541.67 146.049L541.692 146.073L545.384 142.7ZM541.051 128.567L536.079 128.043L536.077 128.057L541.051 128.567ZM548.366 114.717L545.062 110.965L545.052 110.974L545.042 110.983L548.366 114.717ZM576.349 114.717L572.658 118.09L572.669 118.102L572.681 118.114L576.349 114.717ZM580.824 128.567L575.851 128.043L575.85 128.057L580.824 128.567ZM576.918 138.652L572.888 135.692L572.88 135.703L576.918 138.652ZM568.821 145.825L571.238 150.202L571.249 150.196L571.26 150.19L568.821 145.825ZM558.949 143.453C554.709 143.453 551.563 142.051 549.075 139.328L541.692 146.073C546.212 151.02 552.11 153.453 558.949 153.453V143.453ZM549.118 139.376C546.667 136.622 545.589 133.333 546.025 129.077L536.077 128.057C535.377 134.88 537.188 141.013 541.649 146.025L549.118 139.376ZM546.024 129.09C546.453 125.013 548.248 121.516 551.691 118.452L545.042 110.983C539.867 115.589 536.786 121.325 536.079 128.043L546.024 129.09ZM551.671 118.47C555.161 115.397 558.949 113.964 563.21 113.964V103.964C556.392 103.964 550.284 106.367 545.062 110.965L551.671 118.47ZM563.21 113.964C567.08 113.964 570.114 115.305 572.658 118.09L580.041 111.345C575.577 106.459 569.852 103.964 563.21 103.964V113.964ZM572.681 118.114C575.21 120.846 576.275 124.016 575.851 128.043L585.796 129.09C586.509 122.322 584.591 116.259 580.018 111.32L572.681 118.114ZM575.85 128.057C575.563 130.852 574.593 133.37 572.888 135.692L580.948 141.612C583.693 137.873 585.327 133.668 585.798 129.077L575.85 128.057ZM572.88 135.703C571.126 138.106 568.972 140.013 566.382 141.461L571.26 150.19C575.11 148.039 578.354 145.164 580.956 141.6L572.88 135.703ZM566.404 141.448C563.923 142.818 561.459 143.453 558.949 143.453V153.453C563.257 153.453 567.374 152.336 571.238 150.202L566.404 141.448ZM622.301 141.138L619.675 145.392L619.684 145.398L619.694 145.404L622.301 141.138ZM606.179 121.393L601.479 123.1L601.482 123.109L606.179 121.393ZM604.403 91.919L609.333 92.7545L609.337 92.7342L609.34 92.7139L604.403 91.919ZM615.909 62.5156L611.81 59.6529L611.806 59.6576L615.909 62.5156ZM638.636 42.7713L640.9 47.2296L640.909 47.2251L638.636 42.7713ZM697.088 41.4929L694.702 45.8868L694.719 45.8962L694.737 45.9054L697.088 41.4929ZM712.5 57.8281L707.917 59.8274L707.925 59.846L707.933 59.8645L712.5 57.8281ZM714.915 82.544V87.544H719.178L719.852 83.334L714.915 82.544ZM678.551 82.544L673.565 82.1701L673.162 87.544H678.551V82.544ZM675.781 69.4758L671.751 72.4354L671.766 72.4557L671.781 72.4758L675.781 69.4758ZM656.392 67.9133L659.181 72.0631L659.189 72.058L659.196 72.0529L656.392 67.9133ZM648.935 76.7912L644.505 74.4711L644.5 74.4811L644.495 74.4911L648.935 76.7912ZM644.46 91.6349L639.522 90.8511L644.46 91.6349ZM644.105 106.55L639.183 107.429L639.189 107.462L639.195 107.496L644.105 106.55ZM648.509 115.428L645.137 119.12L645.179 119.158L645.222 119.195L648.509 115.428ZM665.057 116.351L667.427 120.753L667.442 120.745L667.457 120.737L665.057 116.351ZM671.52 110.385L667.417 107.527L667.412 107.535L667.406 107.543L671.52 110.385ZM675.71 100.726V95.7258H671.806L670.859 99.5132L675.71 100.726ZM712.074 100.726L716.989 101.641L718.091 95.7258H712.074V100.726ZM701.207 125.868L705.175 128.91L701.207 125.868ZM680.398 142.345L682.49 146.886L680.398 142.345ZM651.562 143.169C640.361 143.169 631.582 140.95 624.908 136.871L619.694 145.404C628.361 150.701 639.09 153.169 651.562 153.169V143.169ZM624.927 136.883C618.208 132.735 613.566 127.046 610.876 119.678L601.482 123.109C604.947 132.597 611.053 140.071 619.675 145.392L624.927 136.883ZM610.879 119.687C608.163 112.208 607.547 103.292 609.333 92.7545L599.474 91.0835C597.472 102.895 598.04 113.628 601.479 123.1L610.879 119.687ZM609.34 92.7139C611.032 82.2047 614.612 73.1247 620.012 65.3736L611.806 59.6576C605.464 68.7626 601.373 79.2848 599.467 91.1242L609.34 92.7139ZM620.008 65.3783C625.455 57.579 632.4 51.5451 640.9 47.2296L636.373 38.3129C626.407 43.3724 618.2 50.5014 611.81 59.6529L620.008 65.3783ZM640.909 47.2251C649.395 42.8955 659.157 40.669 670.312 40.669V30.669C657.794 30.669 646.439 33.1774 636.364 38.3175L640.909 47.2251ZM670.312 40.669C680.434 40.669 688.479 42.5077 694.702 45.8868L699.474 37.099C691.397 32.7129 681.593 30.669 670.312 30.669V40.669ZM694.737 45.9054C701.003 49.2446 705.318 53.8695 707.917 59.8274L717.083 55.8288C713.527 47.6769 707.567 41.4116 699.44 37.0803L694.737 45.9054ZM707.933 59.8645C710.575 65.7878 711.378 73.0032 709.978 81.7541L719.852 83.334C721.482 73.1454 720.675 63.8835 717.067 55.7917L707.933 59.8645ZM714.915 77.544H678.551V87.544H714.915V77.544ZM683.537 82.918C684.01 76.6183 683.07 70.8607 679.781 66.4758L671.781 72.4758C673.038 74.1516 673.945 77.106 673.565 82.1701L683.537 82.918ZM679.811 66.5163C676.508 62.0185 671.66 59.9304 666.051 59.9304V69.9304C668.965 69.9304 670.604 70.8725 671.751 72.4354L679.811 66.5163ZM666.051 59.9304C661.535 59.9304 657.341 61.2316 653.588 63.7737L659.196 72.0529C661.315 70.6178 663.56 69.9304 666.051 69.9304V59.9304ZM653.603 63.7636C649.853 66.2842 646.866 69.965 644.505 74.4711L653.364 79.1112C655.17 75.6628 657.155 73.425 659.181 72.0631L653.603 63.7636ZM644.495 74.4911C642.141 79.0345 640.525 84.5355 639.522 90.8511L649.398 92.4188C650.29 86.8026 651.656 82.4077 653.374 79.0912L644.495 74.4911ZM639.522 90.8511C638.527 97.1228 638.339 102.701 639.183 107.429L649.027 105.671C648.451 102.443 648.5 98.0789 649.398 92.4188L639.522 90.8511ZM639.195 107.496C640.085 112.111 641.924 116.186 645.137 119.12L651.88 111.735C650.737 110.692 649.64 108.848 649.015 105.603L639.195 107.496ZM645.222 119.195C648.497 122.052 652.541 123.339 656.96 123.339V113.339C654.562 113.339 652.971 112.685 651.795 111.66L645.222 119.195ZM656.96 123.339C660.681 123.339 664.2 122.491 667.427 120.753L662.686 111.948C660.989 112.862 659.111 113.339 656.96 113.339V123.339ZM667.457 120.737C670.72 118.951 673.439 116.403 675.634 113.227L667.406 107.543C666.002 109.575 664.412 111.004 662.657 111.965L667.457 120.737ZM675.623 113.242C677.88 110.001 679.497 106.196 680.561 101.939L670.859 99.5132C670.03 102.831 668.852 105.466 667.417 107.527L675.623 113.242ZM675.71 105.726H712.074V95.7258H675.71V105.726ZM707.158 99.8102C705.489 108.773 702.16 116.407 697.239 122.826L705.175 128.91C711.145 121.124 715.06 111.997 716.989 101.641L707.158 99.8102ZM697.239 122.826C692.307 129.259 686.024 134.248 678.306 137.804L682.49 146.886C691.627 142.677 699.218 136.681 705.175 128.91L697.239 122.826ZM678.306 137.804C670.632 141.339 661.753 143.169 651.562 143.169V153.169C662.963 153.169 673.307 151.117 682.49 146.886L678.306 137.804ZM720.579 146.18L715.647 145.358L714.677 151.18H720.579V146.18ZM738.761 37.0895V32.0895H734.525L733.829 36.2675L738.761 37.0895ZM776.829 37.0895L781.763 37.9005L782.718 32.0895H776.829V37.0895ZM773.42 57.8281L768.486 57.0171L767.531 62.8281H773.42V57.8281ZM774.556 57.8281V62.8281H777.861L779.156 59.7874L774.556 57.8281ZM786.843 40.9957L783.918 36.9403L786.843 40.9957ZM807.866 36.0951L806.971 41.0145L807.055 41.0296L807.138 41.0419L807.866 36.0951ZM812.624 37.0895L817.554 37.925L818.311 33.4578L813.94 32.2656L812.624 37.0895ZM806.943 70.6122L805.148 75.2789L810.851 77.4726L811.872 71.4477L806.943 70.6122ZM800.053 69.1207L799.454 74.0847L799.496 74.0898L799.539 74.0942L800.053 69.1207ZM782.085 71.2514L784.397 75.6843L784.409 75.6781L784.421 75.6719L782.085 71.2514ZM773.704 78.4957L769.689 75.5152L769.682 75.5255L773.704 78.4957ZM769.158 89.3622L764.239 88.4678L764.232 88.5079L764.225 88.5482L769.158 89.3622ZM759.783 146.18V151.18H764.026L764.717 146.994L759.783 146.18ZM725.511 147.002L743.693 37.9115L733.829 36.2675L715.647 145.358L725.511 147.002ZM738.761 42.0895H776.829V32.0895H738.761V42.0895ZM771.895 36.2784L768.486 57.0171L778.354 58.6391L781.763 37.9005L771.895 36.2784ZM773.42 62.8281H774.556V52.8281H773.42V62.8281ZM779.156 59.7874C782.194 52.6547 785.809 47.9061 789.768 45.0512L783.918 36.9403C778.029 41.1876 773.452 47.6606 769.956 55.8688L779.156 59.7874ZM789.768 45.0512C793.879 42.0863 798.238 40.669 802.965 40.669V30.669C796.045 30.669 789.656 32.8028 783.918 36.9403L789.768 45.0512ZM802.965 40.669C804.391 40.669 805.725 40.7878 806.971 41.0145L808.76 31.1758C806.882 30.8343 804.948 30.669 802.965 30.669V40.669ZM807.138 41.0419C808.551 41.2497 809.94 41.5401 811.309 41.9133L813.94 32.2656C812.183 31.7865 810.4 31.4141 808.593 31.1484L807.138 41.0419ZM807.695 36.2539L802.013 69.7766L811.872 71.4477L817.554 37.925L807.695 36.2539ZM808.737 65.9455C806.353 65.0284 803.594 64.4603 800.568 64.1473L799.539 74.0942C802.005 74.3493 803.839 74.7755 805.148 75.2789L808.737 65.9455ZM800.652 64.1567C797.762 63.808 795.118 63.6236 792.738 63.6236V73.6236C794.62 73.6236 796.852 73.7706 799.454 74.0847L800.652 64.1567ZM792.738 63.6236C788.144 63.6236 783.79 64.6943 779.748 66.8309L784.421 75.6719C787.008 74.3047 789.756 73.6236 792.738 73.6236V63.6236ZM779.772 66.8185C775.797 68.892 772.434 71.8187 769.689 75.5152L777.718 81.4762C779.614 78.9227 781.838 77.0199 784.397 75.6843L779.772 66.8185ZM769.682 75.5255C766.909 79.2807 765.118 83.6311 764.239 88.4678L774.078 90.2566C774.714 86.76 775.954 83.866 777.726 81.4659L769.682 75.5255ZM764.225 88.5482L754.85 145.366L764.717 146.994L774.092 90.1762L764.225 88.5482ZM759.783 141.18H720.579V151.18H759.783V141.18Z" fill="#FC7D08"/>
</svg>
